<?xml version="1.0" encoding="utf-8"?>
<svg xmlns="http://www.w3.org/2000/svg" xmlns:xlink="http://www.w3.org/1999/xlink" width="600" height="400" viewBox="0 0 2400 1600">
<defs>
  <clipPath id="clip260">
    <rect x="0" y="0" width="2400" height="1600"/>
  </clipPath>
</defs>
<path clip-path="url(#clip260)" d="M0 1600 L2400 1600 L2400 0 L0 0  Z" fill="#ffffff" fill-rule="evenodd" fill-opacity="1"/>
<defs>
  <clipPath id="clip261">
    <rect x="480" y="0" width="1681" height="1600"/>
  </clipPath>
</defs>
<path clip-path="url(#clip260)" d="M147.478 1486.45 L2352.76 1486.45 L2352.76 47.2441 L147.478 47.2441  Z" fill="#ffffff" fill-rule="evenodd" fill-opacity="1"/>
<defs>
  <clipPath id="clip262">
    <rect x="147" y="47" width="2206" height="1440"/>
  </clipPath>
</defs>
<polyline clip-path="url(#clip262)" style="stroke:#000000; stroke-linecap:round; stroke-linejoin:round; stroke-width:2; stroke-opacity:0.1; fill:none" points="209.891,1486.45 209.891,47.2441 "/>
<polyline clip-path="url(#clip262)" style="stroke:#000000; stroke-linecap:round; stroke-linejoin:round; stroke-width:2; stroke-opacity:0.1; fill:none" points="730.004,1486.45 730.004,47.2441 "/>
<polyline clip-path="url(#clip262)" style="stroke:#000000; stroke-linecap:round; stroke-linejoin:round; stroke-width:2; stroke-opacity:0.1; fill:none" points="1250.12,1486.45 1250.12,47.2441 "/>
<polyline clip-path="url(#clip262)" style="stroke:#000000; stroke-linecap:round; stroke-linejoin:round; stroke-width:2; stroke-opacity:0.1; fill:none" points="1770.23,1486.45 1770.23,47.2441 "/>
<polyline clip-path="url(#clip262)" style="stroke:#000000; stroke-linecap:round; stroke-linejoin:round; stroke-width:2; stroke-opacity:0.1; fill:none" points="2290.34,1486.45 2290.34,47.2441 "/>
<polyline clip-path="url(#clip260)" style="stroke:#000000; stroke-linecap:round; stroke-linejoin:round; stroke-width:4; stroke-opacity:1; fill:none" points="147.478,1486.45 2352.76,1486.45 "/>
<polyline clip-path="url(#clip260)" style="stroke:#000000; stroke-linecap:round; stroke-linejoin:round; stroke-width:4; stroke-opacity:1; fill:none" points="209.891,1486.45 209.891,1467.55 "/>
<polyline clip-path="url(#clip260)" style="stroke:#000000; stroke-linecap:round; stroke-linejoin:round; stroke-width:4; stroke-opacity:1; fill:none" points="730.004,1486.45 730.004,1467.55 "/>
<polyline clip-path="url(#clip260)" style="stroke:#000000; stroke-linecap:round; stroke-linejoin:round; stroke-width:4; stroke-opacity:1; fill:none" points="1250.12,1486.45 1250.12,1467.55 "/>
<polyline clip-path="url(#clip260)" style="stroke:#000000; stroke-linecap:round; stroke-linejoin:round; stroke-width:4; stroke-opacity:1; fill:none" points="1770.23,1486.45 1770.23,1467.55 "/>
<polyline clip-path="url(#clip260)" style="stroke:#000000; stroke-linecap:round; stroke-linejoin:round; stroke-width:4; stroke-opacity:1; fill:none" points="2290.34,1486.45 2290.34,1467.55 "/>
<path clip-path="url(#clip260)" d="M172.195 1517.37 Q168.584 1517.37 166.755 1520.93 Q164.95 1524.47 164.95 1531.6 Q164.95 1538.71 166.755 1542.27 Q168.584 1545.82 172.195 1545.82 Q175.829 1545.82 177.635 1542.27 Q179.463 1538.71 179.463 1531.6 Q179.463 1524.47 177.635 1520.93 Q175.829 1517.37 172.195 1517.37 M172.195 1513.66 Q178.005 1513.66 181.061 1518.27 Q184.139 1522.85 184.139 1531.6 Q184.139 1540.33 181.061 1544.94 Q178.005 1549.52 172.195 1549.52 Q166.385 1549.52 163.306 1544.94 Q160.251 1540.33 160.251 1531.6 Q160.251 1522.85 163.306 1518.27 Q166.385 1513.66 172.195 1513.66 Z" fill="#000000" fill-rule="nonzero" fill-opacity="1" /><path clip-path="url(#clip260)" d="M192.357 1542.97 L197.241 1542.97 L197.241 1548.85 L192.357 1548.85 L192.357 1542.97 Z" fill="#000000" fill-rule="nonzero" fill-opacity="1" /><path clip-path="url(#clip260)" d="M217.426 1517.37 Q213.815 1517.37 211.986 1520.93 Q210.181 1524.47 210.181 1531.6 Q210.181 1538.71 211.986 1542.27 Q213.815 1545.82 217.426 1545.82 Q221.06 1545.82 222.866 1542.27 Q224.695 1538.71 224.695 1531.6 Q224.695 1524.47 222.866 1520.93 Q221.06 1517.37 217.426 1517.37 M217.426 1513.66 Q223.236 1513.66 226.292 1518.27 Q229.371 1522.85 229.371 1531.6 Q229.371 1540.33 226.292 1544.94 Q223.236 1549.52 217.426 1549.52 Q211.616 1549.52 208.537 1544.94 Q205.482 1540.33 205.482 1531.6 Q205.482 1522.85 208.537 1518.27 Q211.616 1513.66 217.426 1513.66 Z" fill="#000000" fill-rule="nonzero" fill-opacity="1" /><path clip-path="url(#clip260)" d="M247.588 1517.37 Q243.977 1517.37 242.148 1520.93 Q240.343 1524.47 240.343 1531.6 Q240.343 1538.71 242.148 1542.27 Q243.977 1545.82 247.588 1545.82 Q251.222 1545.82 253.028 1542.27 Q254.856 1538.71 254.856 1531.6 Q254.856 1524.47 253.028 1520.93 Q251.222 1517.37 247.588 1517.37 M247.588 1513.66 Q253.398 1513.66 256.454 1518.27 Q259.532 1522.85 259.532 1531.6 Q259.532 1540.33 256.454 1544.94 Q253.398 1549.52 247.588 1549.52 Q241.778 1549.52 238.699 1544.94 Q235.644 1540.33 235.644 1531.6 Q235.644 1522.85 238.699 1518.27 Q241.778 1513.66 247.588 1513.66 Z" fill="#000000" fill-rule="nonzero" fill-opacity="1" /><path clip-path="url(#clip260)" d="M692.805 1517.37 Q689.194 1517.37 687.366 1520.93 Q685.56 1524.47 685.56 1531.6 Q685.56 1538.71 687.366 1542.27 Q689.194 1545.82 692.805 1545.82 Q696.44 1545.82 698.245 1542.27 Q700.074 1538.71 700.074 1531.6 Q700.074 1524.47 698.245 1520.93 Q696.44 1517.37 692.805 1517.37 M692.805 1513.66 Q698.615 1513.66 701.671 1518.27 Q704.75 1522.85 704.75 1531.6 Q704.75 1540.33 701.671 1544.94 Q698.615 1549.52 692.805 1549.52 Q686.995 1549.52 683.916 1544.94 Q680.861 1540.33 680.861 1531.6 Q680.861 1522.85 683.916 1518.27 Q686.995 1513.66 692.805 1513.66 Z" fill="#000000" fill-rule="nonzero" fill-opacity="1" /><path clip-path="url(#clip260)" d="M712.967 1542.97 L717.851 1542.97 L717.851 1548.85 L712.967 1548.85 L712.967 1542.97 Z" fill="#000000" fill-rule="nonzero" fill-opacity="1" /><path clip-path="url(#clip260)" d="M732.064 1544.91 L748.384 1544.91 L748.384 1548.85 L726.439 1548.85 L726.439 1544.91 Q729.101 1542.16 733.685 1537.53 Q738.291 1532.88 739.472 1531.53 Q741.717 1529.01 742.597 1527.27 Q743.499 1525.51 743.499 1523.82 Q743.499 1521.07 741.555 1519.33 Q739.634 1517.6 736.532 1517.6 Q734.333 1517.6 731.879 1518.36 Q729.449 1519.13 726.671 1520.68 L726.671 1515.95 Q729.495 1514.82 731.949 1514.24 Q734.402 1513.66 736.439 1513.66 Q741.81 1513.66 745.004 1516.35 Q748.199 1519.03 748.199 1523.52 Q748.199 1525.65 747.388 1527.57 Q746.601 1529.47 744.495 1532.07 Q743.916 1532.74 740.814 1535.95 Q737.712 1539.15 732.064 1544.91 Z" fill="#000000" fill-rule="nonzero" fill-opacity="1" /><path clip-path="url(#clip260)" d="M758.245 1514.29 L776.601 1514.29 L776.601 1518.22 L762.527 1518.22 L762.527 1526.7 Q763.546 1526.35 764.564 1526.19 Q765.583 1526 766.601 1526 Q772.388 1526 775.768 1529.17 Q779.147 1532.34 779.147 1537.76 Q779.147 1543.34 775.675 1546.44 Q772.203 1549.52 765.884 1549.52 Q763.708 1549.52 761.439 1549.15 Q759.194 1548.78 756.786 1548.04 L756.786 1543.34 Q758.87 1544.47 761.092 1545.03 Q763.314 1545.58 765.791 1545.58 Q769.796 1545.58 772.134 1543.48 Q774.472 1541.37 774.472 1537.76 Q774.472 1534.15 772.134 1532.04 Q769.796 1529.94 765.791 1529.94 Q763.916 1529.94 762.041 1530.35 Q760.189 1530.77 758.245 1531.65 L758.245 1514.29 Z" fill="#000000" fill-rule="nonzero" fill-opacity="1" /><path clip-path="url(#clip260)" d="M1212.42 1517.37 Q1208.81 1517.37 1206.98 1520.93 Q1205.18 1524.47 1205.18 1531.6 Q1205.18 1538.71 1206.98 1542.27 Q1208.81 1545.82 1212.42 1545.82 Q1216.05 1545.82 1217.86 1542.27 Q1219.69 1538.71 1219.69 1531.6 Q1219.69 1524.47 1217.86 1520.93 Q1216.05 1517.37 1212.42 1517.37 M1212.42 1513.66 Q1218.23 1513.66 1221.29 1518.27 Q1224.36 1522.85 1224.36 1531.6 Q1224.36 1540.33 1221.29 1544.94 Q1218.23 1549.52 1212.42 1549.52 Q1206.61 1549.52 1203.53 1544.94 Q1200.48 1540.33 1200.48 1531.6 Q1200.48 1522.85 1203.53 1518.27 Q1206.61 1513.66 1212.42 1513.66 Z" fill="#000000" fill-rule="nonzero" fill-opacity="1" /><path clip-path="url(#clip260)" d="M1232.58 1542.97 L1237.47 1542.97 L1237.47 1548.85 L1232.58 1548.85 L1232.58 1542.97 Z" fill="#000000" fill-rule="nonzero" fill-opacity="1" /><path clip-path="url(#clip260)" d="M1247.7 1514.29 L1266.05 1514.29 L1266.05 1518.22 L1251.98 1518.22 L1251.98 1526.7 Q1253 1526.35 1254.02 1526.19 Q1255.04 1526 1256.05 1526 Q1261.84 1526 1265.22 1529.17 Q1268.6 1532.34 1268.6 1537.76 Q1268.6 1543.34 1265.13 1546.44 Q1261.66 1549.52 1255.34 1549.52 Q1253.16 1549.52 1250.89 1549.15 Q1248.65 1548.78 1246.24 1548.04 L1246.24 1543.34 Q1248.32 1544.47 1250.55 1545.03 Q1252.77 1545.58 1255.24 1545.58 Q1259.25 1545.58 1261.59 1543.48 Q1263.92 1541.37 1263.92 1537.76 Q1263.92 1534.15 1261.59 1532.04 Q1259.25 1529.94 1255.24 1529.94 Q1253.37 1529.94 1251.49 1530.35 Q1249.64 1530.77 1247.7 1531.65 L1247.7 1514.29 Z" fill="#000000" fill-rule="nonzero" fill-opacity="1" /><path clip-path="url(#clip260)" d="M1287.81 1517.37 Q1284.2 1517.37 1282.37 1520.93 Q1280.57 1524.47 1280.57 1531.6 Q1280.57 1538.71 1282.37 1542.27 Q1284.2 1545.82 1287.81 1545.82 Q1291.45 1545.82 1293.25 1542.27 Q1295.08 1538.71 1295.08 1531.6 Q1295.08 1524.47 1293.25 1520.93 Q1291.45 1517.37 1287.81 1517.37 M1287.81 1513.66 Q1293.62 1513.66 1296.68 1518.27 Q1299.76 1522.85 1299.76 1531.6 Q1299.76 1540.33 1296.68 1544.94 Q1293.62 1549.52 1287.81 1549.52 Q1282 1549.52 1278.92 1544.94 Q1275.87 1540.33 1275.87 1531.6 Q1275.87 1522.85 1278.92 1518.27 Q1282 1513.66 1287.81 1513.66 Z" fill="#000000" fill-rule="nonzero" fill-opacity="1" /><path clip-path="url(#clip260)" d="M1733.03 1517.37 Q1729.42 1517.37 1727.59 1520.93 Q1725.79 1524.47 1725.79 1531.6 Q1725.79 1538.71 1727.59 1542.27 Q1729.42 1545.82 1733.03 1545.82 Q1736.67 1545.82 1738.47 1542.27 Q1740.3 1538.71 1740.3 1531.6 Q1740.3 1524.47 1738.47 1520.93 Q1736.67 1517.37 1733.03 1517.37 M1733.03 1513.66 Q1738.84 1513.66 1741.9 1518.27 Q1744.98 1522.85 1744.98 1531.6 Q1744.98 1540.33 1741.9 1544.94 Q1738.84 1549.52 1733.03 1549.52 Q1727.22 1549.52 1724.14 1544.94 Q1721.09 1540.33 1721.09 1531.6 Q1721.09 1522.85 1724.14 1518.27 Q1727.22 1513.66 1733.03 1513.66 Z" fill="#000000" fill-rule="nonzero" fill-opacity="1" /><path clip-path="url(#clip260)" d="M1753.19 1542.97 L1758.08 1542.97 L1758.08 1548.85 L1753.19 1548.85 L1753.19 1542.97 Z" fill="#000000" fill-rule="nonzero" fill-opacity="1" /><path clip-path="url(#clip260)" d="M1767.08 1514.29 L1789.3 1514.29 L1789.3 1516.28 L1776.76 1548.85 L1771.87 1548.85 L1783.68 1518.22 L1767.08 1518.22 L1767.08 1514.29 Z" fill="#000000" fill-rule="nonzero" fill-opacity="1" /><path clip-path="url(#clip260)" d="M1798.47 1514.29 L1816.83 1514.29 L1816.83 1518.22 L1802.75 1518.22 L1802.75 1526.7 Q1803.77 1526.35 1804.79 1526.19 Q1805.81 1526 1806.83 1526 Q1812.61 1526 1815.99 1529.17 Q1819.37 1532.34 1819.37 1537.76 Q1819.37 1543.34 1815.9 1546.44 Q1812.43 1549.52 1806.11 1549.52 Q1803.93 1549.52 1801.66 1549.15 Q1799.42 1548.78 1797.01 1548.04 L1797.01 1543.34 Q1799.1 1544.47 1801.32 1545.03 Q1803.54 1545.58 1806.02 1545.58 Q1810.02 1545.58 1812.36 1543.48 Q1814.7 1541.37 1814.7 1537.76 Q1814.7 1534.15 1812.36 1532.04 Q1810.02 1529.94 1806.02 1529.94 Q1804.14 1529.94 1802.27 1530.35 Q1800.41 1530.77 1798.47 1531.65 L1798.47 1514.29 Z" fill="#000000" fill-rule="nonzero" fill-opacity="1" /><path clip-path="url(#clip260)" d="M2242.41 1544.91 L2250.05 1544.91 L2250.05 1518.55 L2241.74 1520.21 L2241.74 1515.95 L2250.01 1514.29 L2254.68 1514.29 L2254.68 1544.91 L2262.32 1544.91 L2262.32 1548.85 L2242.41 1548.85 L2242.41 1544.91 Z" fill="#000000" fill-rule="nonzero" fill-opacity="1" /><path clip-path="url(#clip260)" d="M2271.77 1542.97 L2276.65 1542.97 L2276.65 1548.85 L2271.77 1548.85 L2271.77 1542.97 Z" fill="#000000" fill-rule="nonzero" fill-opacity="1" /><path clip-path="url(#clip260)" d="M2296.84 1517.37 Q2293.22 1517.37 2291.4 1520.93 Q2289.59 1524.47 2289.59 1531.6 Q2289.59 1538.71 2291.4 1542.27 Q2293.22 1545.82 2296.84 1545.82 Q2300.47 1545.82 2302.28 1542.27 Q2304.1 1538.71 2304.1 1531.6 Q2304.1 1524.47 2302.28 1520.93 Q2300.47 1517.37 2296.84 1517.37 M2296.84 1513.66 Q2302.65 1513.66 2305.7 1518.27 Q2308.78 1522.85 2308.78 1531.6 Q2308.78 1540.33 2305.7 1544.94 Q2302.65 1549.52 2296.84 1549.52 Q2291.03 1549.52 2287.95 1544.94 Q2284.89 1540.33 2284.89 1531.6 Q2284.89 1522.85 2287.95 1518.27 Q2291.03 1513.66 2296.84 1513.66 Z" fill="#000000" fill-rule="nonzero" fill-opacity="1" /><path clip-path="url(#clip260)" d="M2327 1517.37 Q2323.39 1517.37 2321.56 1520.93 Q2319.75 1524.47 2319.75 1531.6 Q2319.75 1538.71 2321.56 1542.27 Q2323.39 1545.82 2327 1545.82 Q2330.63 1545.82 2332.44 1542.27 Q2334.27 1538.71 2334.27 1531.6 Q2334.27 1524.47 2332.44 1520.93 Q2330.63 1517.37 2327 1517.37 M2327 1513.66 Q2332.81 1513.66 2335.86 1518.27 Q2338.94 1522.85 2338.94 1531.6 Q2338.94 1540.33 2335.86 1544.94 Q2332.81 1549.52 2327 1549.52 Q2321.19 1549.52 2318.11 1544.94 Q2315.05 1540.33 2315.05 1531.6 Q2315.05 1522.85 2318.11 1518.27 Q2321.19 1513.66 2327 1513.66 Z" fill="#000000" fill-rule="nonzero" fill-opacity="1" /><polyline clip-path="url(#clip262)" style="stroke:#000000; stroke-linecap:round; stroke-linejoin:round; stroke-width:2; stroke-opacity:0.1; fill:none" points="147.478,1401.37 2352.76,1401.37 "/>
<polyline clip-path="url(#clip262)" style="stroke:#000000; stroke-linecap:round; stroke-linejoin:round; stroke-width:2; stroke-opacity:0.1; fill:none" points="147.478,963.574 2352.76,963.574 "/>
<polyline clip-path="url(#clip262)" style="stroke:#000000; stroke-linecap:round; stroke-linejoin:round; stroke-width:2; stroke-opacity:0.1; fill:none" points="147.478,525.775 2352.76,525.775 "/>
<polyline clip-path="url(#clip262)" style="stroke:#000000; stroke-linecap:round; stroke-linejoin:round; stroke-width:2; stroke-opacity:0.1; fill:none" points="147.478,87.9763 2352.76,87.9763 "/>
<polyline clip-path="url(#clip260)" style="stroke:#000000; stroke-linecap:round; stroke-linejoin:round; stroke-width:4; stroke-opacity:1; fill:none" points="147.478,1486.45 147.478,47.2441 "/>
<polyline clip-path="url(#clip260)" style="stroke:#000000; stroke-linecap:round; stroke-linejoin:round; stroke-width:4; stroke-opacity:1; fill:none" points="147.478,1401.37 166.376,1401.37 "/>
<polyline clip-path="url(#clip260)" style="stroke:#000000; stroke-linecap:round; stroke-linejoin:round; stroke-width:4; stroke-opacity:1; fill:none" points="147.478,963.574 166.376,963.574 "/>
<polyline clip-path="url(#clip260)" style="stroke:#000000; stroke-linecap:round; stroke-linejoin:round; stroke-width:4; stroke-opacity:1; fill:none" points="147.478,525.775 166.376,525.775 "/>
<polyline clip-path="url(#clip260)" style="stroke:#000000; stroke-linecap:round; stroke-linejoin:round; stroke-width:4; stroke-opacity:1; fill:none" points="147.478,87.9763 166.376,87.9763 "/>
<path clip-path="url(#clip260)" d="M50.9921 1401.82 L80.6679 1401.82 L80.6679 1405.76 L50.9921 1405.76 L50.9921 1401.82 Z" fill="#000000" fill-rule="nonzero" fill-opacity="1" /><path clip-path="url(#clip260)" d="M91.5706 1414.72 L99.2095 1414.72 L99.2095 1388.35 L90.8993 1390.02 L90.8993 1385.76 L99.1632 1384.09 L103.839 1384.09 L103.839 1414.72 L111.478 1414.72 L111.478 1418.65 L91.5706 1418.65 L91.5706 1414.72 Z" fill="#000000" fill-rule="nonzero" fill-opacity="1" /><path clip-path="url(#clip260)" d="M99.5335 949.373 Q95.9224 949.373 94.0937 952.938 Q92.2882 956.479 92.2882 963.609 Q92.2882 970.716 94.0937 974.28 Q95.9224 977.822 99.5335 977.822 Q103.168 977.822 104.973 974.28 Q106.802 970.716 106.802 963.609 Q106.802 956.479 104.973 952.938 Q103.168 949.373 99.5335 949.373 M99.5335 945.669 Q105.344 945.669 108.399 950.276 Q111.478 954.859 111.478 963.609 Q111.478 972.336 108.399 976.942 Q105.344 981.526 99.5335 981.526 Q93.7234 981.526 90.6447 976.942 Q87.5892 972.336 87.5892 963.609 Q87.5892 954.859 90.6447 950.276 Q93.7234 945.669 99.5335 945.669 Z" fill="#000000" fill-rule="nonzero" fill-opacity="1" /><path clip-path="url(#clip260)" d="M91.5706 539.12 L99.2095 539.12 L99.2095 512.755 L90.8993 514.421 L90.8993 510.162 L99.1632 508.495 L103.839 508.495 L103.839 539.12 L111.478 539.12 L111.478 543.055 L91.5706 543.055 L91.5706 539.12 Z" fill="#000000" fill-rule="nonzero" fill-opacity="1" /><path clip-path="url(#clip260)" d="M95.1586 101.321 L111.478 101.321 L111.478 105.256 L89.5336 105.256 L89.5336 101.321 Q92.1956 98.5665 96.7789 93.9369 Q101.385 89.2841 102.566 87.9416 Q104.811 85.4184 105.691 83.6823 Q106.594 81.9231 106.594 80.2333 Q106.594 77.4786 104.649 75.7425 Q102.728 74.0064 99.6261 74.0064 Q97.4271 74.0064 94.9734 74.7703 Q92.5428 75.5342 89.7651 77.0851 L89.7651 72.3629 Q92.5891 71.2287 95.0428 70.65 Q97.4965 70.0713 99.5335 70.0713 Q104.904 70.0713 108.098 72.7565 Q111.293 75.4416 111.293 79.9323 Q111.293 82.062 110.483 83.9832 Q109.696 85.8814 107.589 88.474 Q107.01 89.1453 103.909 92.3628 Q100.807 95.5573 95.1586 101.321 Z" fill="#000000" fill-rule="nonzero" fill-opacity="1" /><polyline clip-path="url(#clip262)" style="stroke:#009af9; stroke-linecap:round; stroke-linejoin:round; stroke-width:8; stroke-opacity:1; fill:none" points="209.891,1401.37 223.436,1401.39 348.678,1403.32 423.943,1406.01 487.579,1409.17 556.705,1413.54 620.434,1418.42 688.757,1424.57 767.917,1432.87 803.09,1436.97 838.264,1441.31 845.975,1442.3 853.686,1443.3 857.542,1443.8 861.397,1444.31 863.325,1444.56 865.253,1444.82 867.181,1445.07 869.108,1445.33 870.072,1445.46 871.036,1445.59 871.518,1445.65 872,1445.72 872.482,481.368 872.964,481.304 873.446,481.239 873.928,481.174 874.41,481.11 874.892,481.045 875.855,480.915 876.819,480.785 880.675,480.263 884.53,479.739 892.241,478.68 899.953,477.61 916.767,475.234 933.581,472.801 950.395,470.311 967.21,467.763 1001.04,462.465 1034.87,456.935 1109.67,443.885 1180.84,430.418 1254.85,415.328 1317.14,401.767 1393.2,384.146 1462.87,366.977 1527.22,350.248 1592.4,332.448 1665.45,311.477 1731.64,291.542 1807.43,267.63 1877.61,244.453 1946.79,220.628 2013.96,196.57 2082.82,170.959 2158.27,141.799 2267.86,97.3877 2290.34,87.9763 "/>
<circle clip-path="url(#clip262)" cx="872.12" cy="963.574" r="14.4" fill="#ff0000" fill-rule="evenodd" fill-opacity="1" stroke="#000000" stroke-opacity="1" stroke-width="3.2"/>
</svg>
